<svg width="111" height="28" viewBox="0 0 111 28" fill="none" xmlns="http://www.w3.org/2000/svg">
<path d="M4.592 6.152V23H0.488V6.152H4.592ZM13.6621 23.168C12.4301 23.168 11.3261 22.968 10.3501 22.568C9.37413 22.168 8.59013 21.576 7.99813 20.792C7.42213 20.008 7.11813 19.064 7.08613 17.96H11.4541C11.5181 18.584 11.7341 19.064 12.1021 19.4C12.4701 19.72 12.9501 19.88 13.5421 19.88C14.1501 19.88 14.6301 19.744 14.9821 19.472C15.3341 19.184 15.5101 18.792 15.5101 18.296C15.5101 17.88 15.3661 17.536 15.0781 17.264C14.8061 16.992 14.4621 16.768 14.0461 16.592C13.6461 16.416 13.0701 16.216 12.3181 15.992C11.2301 15.656 10.3421 15.32 9.65413 14.984C8.96613 14.648 8.37413 14.152 7.87813 13.496C7.38213 12.84 7.13413 11.984 7.13413 10.928C7.13413 9.36 7.70213 8.136 8.83813 7.256C9.97413 6.36 11.4541 5.912 13.2781 5.912C15.1341 5.912 16.6301 6.36 17.7661 7.256C18.9021 8.136 19.5101 9.368 19.5901 10.952H15.1501C15.1181 10.408 14.9181 9.984 14.5501 9.68C14.1821 9.36 13.7101 9.2 13.1341 9.2C12.6381 9.2 12.2381 9.336 11.9341 9.608C11.6301 9.864 11.4781 10.24 11.4781 10.736C11.4781 11.28 11.7341 11.704 12.2461 12.008C12.7581 12.312 13.5581 12.64 14.6461 12.992C15.7341 13.36 16.6141 13.712 17.2861 14.048C17.9741 14.384 18.5661 14.872 19.0621 15.512C19.5581 16.152 19.8061 16.976 19.8061 17.984C19.8061 18.944 19.5581 19.816 19.0621 20.6C18.5821 21.384 17.8781 22.008 16.9501 22.472C16.0221 22.936 14.9261 23.168 13.6621 23.168ZM26.4358 6.152V23H22.3318V6.152H26.4358ZM44.4819 23H40.3779L33.5139 12.608V23H29.4099V6.152H33.5139L40.3779 16.592V6.152H44.4819V23ZM58.6407 11.48C58.3368 10.92 57.8968 10.496 57.3208 10.208C56.7608 9.904 56.0968 9.752 55.3288 9.752C54.0008 9.752 52.9368 10.192 52.1367 11.072C51.3368 11.936 50.9368 13.096 50.9368 14.552C50.9368 16.104 51.3528 17.32 52.1848 18.2C53.0328 19.064 54.1928 19.496 55.6648 19.496C56.6728 19.496 57.5208 19.24 58.2088 18.728C58.9128 18.216 59.4248 17.48 59.7448 16.52H54.5368V13.496H63.4648V17.312C63.1608 18.336 62.6408 19.288 61.9048 20.168C61.1848 21.048 60.2648 21.76 59.1448 22.304C58.0248 22.848 56.7608 23.12 55.3528 23.12C53.6888 23.12 52.2008 22.76 50.8888 22.04C49.5928 21.304 48.5768 20.288 47.8408 18.992C47.1208 17.696 46.7607 16.216 46.7607 14.552C46.7607 12.888 47.1208 11.408 47.8408 10.112C48.5768 8.8 49.5928 7.784 50.8888 7.064C52.1848 6.328 53.6648 5.96 55.3288 5.96C57.3448 5.96 59.0408 6.448 60.4168 7.424C61.8088 8.4 62.7288 9.752 63.1768 11.48H58.6407ZM69.842 9.44V12.848H75.338V16.016H69.842V19.712H76.058V23H65.738V6.152H76.058V9.44H69.842ZM87.3144 23L83.8104 16.64H82.8264V23H78.7224V6.152H85.6104C86.9384 6.152 88.0664 6.384 88.9944 6.848C89.9384 7.312 90.6424 7.952 91.1064 8.768C91.5704 9.568 91.8024 10.464 91.8024 11.456C91.8024 12.576 91.4824 13.576 90.8424 14.456C90.2184 15.336 89.2904 15.96 88.0584 16.328L91.9464 23H87.3144ZM82.8264 13.736H85.3704C86.1224 13.736 86.6824 13.552 87.0504 13.184C87.4344 12.816 87.6264 12.296 87.6264 11.624C87.6264 10.984 87.4344 10.48 87.0504 10.112C86.6824 9.744 86.1224 9.56 85.3704 9.56H82.8264V13.736Z" fill="#362A43"/>
<path d="M96.2986 23.192C95.5786 23.192 94.9866 22.984 94.5226 22.568C94.0746 22.136 93.8506 21.608 93.8506 20.984C93.8506 20.344 94.0746 19.808 94.5226 19.376C94.9866 18.944 95.5786 18.728 96.2986 18.728C97.0026 18.728 97.5786 18.944 98.0266 19.376C98.4906 19.808 98.7226 20.344 98.7226 20.984C98.7226 21.608 98.4906 22.136 98.0266 22.568C97.5786 22.984 97.0026 23.192 96.2986 23.192ZM110.296 0.199999L103.864 27.488H99.9041L106.336 0.199999H110.296Z" fill="#B48FDB"/>
</svg>
