<svg width="13" height="16" viewBox="0 0 13 16" fill="none" xmlns="http://www.w3.org/2000/svg">
<path d="M5.34437 10.5817C4.90487 12.7849 4.36929 14.8968 2.7809 16C2.29127 12.6705 3.50031 10.1705 4.06264 7.51618C3.10426 5.97222 4.17794 2.86668 6.19747 3.63226C8.68323 4.57304 4.04509 9.36974 7.15835 9.96973C10.4095 10.5945 11.7363 4.56984 9.72015 2.61069C6.80826 -0.219653 1.24266 2.54429 1.92781 6.5962C2.09408 7.58658 3.16275 7.88657 2.35477 9.25375C0.490661 8.85855 -0.0658155 7.45058 0.00604184 5.57382C0.121348 2.50189 2.88785 0.352335 5.66355 0.0539412C9.1737 -0.322851 12.4683 1.28831 12.9236 4.44905C13.4358 8.01777 11.3394 11.8833 7.58532 11.6049C6.56762 11.5289 6.14149 11.0457 5.34437 10.5817Z" fill="#362A43"/>
</svg>
