<svg width="71" height="78" viewBox="0 0 71 78" fill="none" xmlns="http://www.w3.org/2000/svg">
<path d="M18.779 63.5598H70.4819V68.9572H18.779V63.5598ZM27.1436 39.5897H62.1664C63.5883 39.5897 64.7454 40.7455 64.7454 42.1674V44.0287C60.1187 47.8972 55.8214 44.086 55.6399 43.919C55.3765 43.6796 54.9749 43.6823 54.7142 43.9244C49.8582 48.4598 45.5116 44.1332 45.3267 43.9456C45.0687 43.6823 44.6444 43.673 44.3717 43.927C39.5982 48.4359 34.955 44.1146 34.7595 43.9297C34.5174 43.6996 34.1463 43.6756 33.8776 43.8791C28.9071 47.6417 25.2401 44.6771 24.5646 44.0553V42.1674C24.5647 40.7455 25.7218 39.5897 27.1436 39.5897ZM24.5647 45.7438C26.2769 46.8596 29.862 48.3441 34.2594 45.2837C35.6666 46.3756 40.2047 49.2618 44.8439 45.3315C45.7151 46.0378 47.6676 47.3519 50.1215 47.3519C51.6657 47.3505 53.4094 46.8305 55.2063 45.3089C56.551 46.2886 60.4908 48.5798 64.7454 45.7324V55.3681H57.1974C57.5827 54.8332 57.8158 54.1823 57.8158 53.4741C57.8158 51.6732 56.3554 50.2075 54.5599 50.2075C52.759 50.2075 51.2933 51.6732 51.2933 53.4741C51.2933 54.1823 51.5273 54.8332 51.9139 55.3681H47.3005C47.6858 54.8332 47.919 54.1823 47.919 53.4741C47.919 51.6732 46.4586 50.2075 44.663 50.2075C42.8608 50.2075 41.3951 51.6732 41.3951 53.4741C41.3951 54.1823 41.6292 54.8332 42.0158 55.3681H37.4023C37.7876 54.8332 38.0207 54.1823 38.0207 53.4741C38.0207 51.6732 36.5603 50.2075 34.7648 50.2075C32.9639 50.2075 31.4982 51.6732 31.4982 53.4741C31.4982 54.1823 31.7322 54.8332 32.1188 55.3681H24.5646V45.7438H24.5647ZM32.8602 53.4741C32.8602 52.4233 33.7141 51.5695 34.7648 51.5695C35.8089 51.5695 36.6588 52.4233 36.6588 53.4741C36.6588 54.5182 35.8089 55.3681 34.7648 55.3681C33.7141 55.3681 32.8602 54.5182 32.8602 53.4741ZM42.7571 53.4741C42.7571 52.4233 43.6123 51.5695 44.663 51.5695C45.7071 51.5695 46.557 52.4233 46.557 53.4741C46.557 54.5182 45.7071 55.3681 44.663 55.3681C43.6123 55.3681 42.7571 54.5182 42.7571 53.4741ZM52.6553 53.4741C52.6553 52.4233 53.5092 51.5695 54.5599 51.5695C55.604 51.5695 56.4539 52.4233 56.4539 53.4741C56.4539 54.5182 55.604 55.3681 54.5599 55.3681C53.5092 55.3681 52.6553 54.5182 52.6553 53.4741ZM21.3566 56.73H23.8639C23.8709 56.7303 23.8766 56.734 23.8837 56.734H65.4264C65.4335 56.734 65.4392 56.7303 65.4462 56.73H67.9029C69.3248 56.73 70.4819 57.8872 70.4819 59.309V62.1979H18.779V59.309C18.779 57.8872 19.9348 56.73 21.3566 56.73ZM18.779 75.7843V70.3191H70.4819V75.7843H18.779Z" fill="#84DCE3"/>
<path d="M41.0091 27.4845V38.2304H35.0573V27.4845C35.0573 26.7899 35.6156 26.2179 36.3103 26.2179H39.7424C40.437 26.2179 41.0091 26.7899 41.0091 27.4845Z" fill="#84DCE3"/>
<path d="M54.261 27.4845V38.2304H48.3092V27.4845C48.3092 26.7899 48.8812 26.2179 49.5758 26.2179H52.9944C53.7025 26.2179 54.261 26.7899 54.261 27.4845Z" fill="#84DCE3"/>
<path d="M38.0277 24.7734C43.3923 19.986 38.0277 14.7232 38.0277 14.7232C38.0277 14.7232 32.6631 19.986 38.0277 24.7734Z" fill="#84DCE3"/>
<path d="M51.2865 24.7734C56.6511 19.986 51.2865 14.7232 51.2865 14.7232C51.2865 14.7232 45.9218 19.986 51.2865 24.7734Z" fill="#84DCE3"/>
<path d="M17.2563 0C11.4951 0 6.80994 4.68509 6.80994 10.4463C6.80994 16.112 11.1138 24.6652 16.5753 25.319V35.9287C16.5753 36.2964 16.8885 36.6097 17.2563 36.6097C17.6376 36.6097 17.9373 36.2964 17.9373 35.9287V25.319C23.3987 24.6652 27.7162 16.112 27.7162 10.4463C27.7162 4.68509 23.031 0 17.2563 0ZM17.2575 5.44406C14.4977 5.44406 12.2512 7.68985 12.2512 10.4504C12.2512 10.8268 11.9467 11.1313 11.5703 11.1313C11.1939 11.1313 10.8893 10.8268 10.8893 10.4504C10.8893 6.93903 13.7462 4.08209 17.2575 4.08209C17.634 4.08209 17.9385 4.38667 17.9385 4.76308C17.9385 5.13949 17.634 5.44406 17.2575 5.44406Z" fill="#84DCE3"/>
<path d="M6.15811 69.9015C6.75899 69.9015 7.24609 69.0297 7.24609 67.9543C7.24609 66.8789 6.75899 66.0071 6.15811 66.0071C5.55724 66.0071 5.07013 66.8789 5.07013 67.9543C5.07013 69.0297 5.55724 69.9015 6.15811 69.9015Z" fill="#84DCE3"/>
<path d="M9.01559 43.5421C9.01559 43.1607 8.716 42.8611 8.33461 42.8611H3.97636C3.59497 42.8611 3.29538 43.1607 3.29538 43.5421V47.6764H9.01559V43.5421Z" fill="#84DCE3"/>
<path d="M12.3123 60.7165C12.3123 58.7552 10.8822 57.1209 9.01623 56.794V49.0383H3.29602V56.794C1.43012 57.1209 0 58.7552 0 60.7165V62.2643H12.3123V60.7165Z" fill="#84DCE3"/>
<path d="M0 63.6312V72.2796H12.3123V63.6312H0ZM6.15613 71.2582C4.78052 71.2582 3.7046 69.8145 3.7046 67.9486C3.7046 66.0963 4.78052 64.639 6.15613 64.639C7.53173 64.639 8.60766 66.0963 8.60766 67.9486C8.60766 69.8145 7.53173 71.2582 6.15613 71.2582Z" fill="#84DCE3"/>
<path d="M0 74.7448C0 76.066 1.07601 77.1419 2.39708 77.1419H9.91517C11.2362 77.1419 12.3123 76.066 12.3123 74.7448V73.6443H0V74.7448Z" fill="#84DCE3"/>
</svg>
