<svg width="80" height="80" viewBox="0 0 80 80" fill="none" xmlns="http://www.w3.org/2000/svg">
<path d="M61.5728 43.264C60.786 41.4282 59.7398 39.5206 58.4811 37.5989L47.1785 42.6089L45.2659 38.294L55.641 33.6951C52.9167 30.2892 49.7147 27.0863 46.3039 24.3578L41.705 34.733L37.3903 32.8204L42.4002 21.5179C40.4784 20.2592 38.5708 19.2128 36.735 18.4261C31.3756 16.1291 27.041 16.2473 24.5297 18.7586C22.0182 21.2702 21.9 25.6047 24.1969 30.9641C28.3467 40.6468 39.3469 51.65 49.035 55.8021C54.3943 58.099 58.729 57.9808 61.2404 55.4695C63.7517 52.958 63.8699 48.6234 61.5728 43.264Z" fill="#84DCE3"/>
<path d="M52.797 9.70461C54.248 6.07044 52.4811 1.95579 48.8471 0.504642C45.2216 -0.942578 41.0945 0.829357 39.6471 4.45488L38.7722 6.64656L43.1554 8.39647L44.0305 6.20479C44.513 4.99607 45.8886 4.40548 47.097 4.88799C48.2961 5.36657 48.8867 6.71688 48.4272 7.92025L42.4 21.5179C43.7007 22.3698 45.0074 23.3208 46.3038 24.3577C46.3579 24.2352 45.615 25.9116 52.797 9.70461Z" fill="#84DCE3"/>
<path d="M72.0783 31.5715C73.2784 31.1134 74.6331 31.7044 75.1106 32.9015C75.5931 34.1102 75.0024 35.4859 73.7939 35.9682L71.6021 36.8433L73.3522 41.2265L75.5439 40.3516C79.1692 38.9044 80.9413 34.7773 79.4939 31.1518C78.0467 27.5262 73.9195 25.7543 70.294 27.2017C53.9998 34.4222 55.7755 33.6354 55.6407 33.6949C56.6776 34.9913 57.6286 36.298 58.4807 37.5987L72.0783 31.5715Z" fill="#84DCE3"/>
<path d="M52.9254 23.7261L63.1218 13.898L66.3973 17.2961L56.2009 27.1243L52.9254 23.7261Z" fill="#84DCE3"/>
<path d="M18.9079 30.3094L14.8261 39.0917L40.8605 65.1261L49.5791 61.0544C37.2749 56.9826 22.8655 42.4424 18.9079 30.3094Z" fill="#84DCE3"/>
<path d="M0.0012207 70.9895L9.01177 80.0001L22.6613 73.6255L6.35489 57.319L0.0012207 70.9895Z" fill="#84DCE3"/>
<path d="M8.47275 52.7622L27.2114 71.5009L36.311 67.2511L12.7085 43.6486L8.47275 52.7622Z" fill="#84DCE3"/>
</svg>
