<svg width="18" height="18" viewBox="0 0 18 18" fill="none" xmlns="http://www.w3.org/2000/svg">
<path d="M11.3545 6.53717C17.2106 6.53717 16.778 6.53594 16.8682 6.53943C16.8152 6.33716 16.7099 6.14583 16.5517 5.98757L14.9461 4.38201C14.5992 4.03503 14.0665 3.93416 13.6205 4.13113C13.381 4.23695 13.0957 4.18355 12.9105 3.99832C12.7252 3.81313 12.6719 3.52778 12.7776 3.28831C12.9746 2.84244 12.8738 2.30971 12.5268 1.9627L10.9212 0.357134C10.4453 -0.118701 9.67104 -0.118737 9.19513 0.357134L7.1864 2.36586C7.75248 2.9324 10.7899 5.97211 11.3545 6.53717Z" fill="#362A43"/>
<path d="M6.43787 3.11462L3.01529 6.5372H9.8572C9.84481 6.52478 9.58296 6.26265 6.43787 3.11462Z" fill="#362A43"/>
<path d="M17.24 12.2018C17.6945 12.0258 17.9999 11.5778 17.9999 11.0871V8.81649C17.9999 8.1435 17.4524 7.59595 16.7794 7.59595H14.294V17.9996H16.7794C17.4524 17.9996 17.9999 17.4521 17.9999 16.7791V14.5085C17.9999 14.0178 17.6946 13.5698 17.24 13.3938C16.9958 13.2992 16.8318 13.0597 16.8318 12.7978C16.8318 12.5359 16.9958 12.2963 17.24 12.2018Z" fill="#362A43"/>
<path d="M0 8.81649V11.0871C0 11.5778 0.3054 12.0258 0.759918 12.2018C1.00408 12.2963 1.16809 12.5359 1.16809 12.7978C1.16809 13.0597 1.00405 13.2992 0.759882 13.3938C0.305365 13.5698 0 14.0178 0 14.5085V16.7791C0 17.4521 0.547553 17.9996 1.22054 17.9996H13.2353V7.59595H1.22054C0.547553 7.59595 0 8.14347 0 8.81649H0ZM3.70588 10.0585H11.6471V11.1173H3.70588V10.0585ZM3.70588 12.1761H11.6471V13.2349H3.70588V12.1761ZM3.70588 14.2937H11.6471V15.3526H3.70588V14.2937Z" fill="#362A43"/>
</svg>
