<svg width="17" height="14" viewBox="0 0 17 14" fill="none" xmlns="http://www.w3.org/2000/svg">
<path d="M17 1.61144C16.3748 1.87633 15.6945 2.06698 14.9938 2.14123C15.7213 1.71667 16.2661 1.04593 16.526 0.254868C15.8433 0.653791 15.0954 0.933523 14.3155 1.08166C13.9895 0.739354 13.5952 0.466661 13.1573 0.280569C12.7193 0.094477 12.247 -0.00102703 11.7699 8.32889e-06C9.8392 8.32889e-06 8.2865 1.53719 8.2865 3.42355C8.2865 3.68844 8.31919 3.95334 8.37231 4.2082C5.48143 4.0597 2.90314 2.70312 1.18904 0.626119C0.876713 1.15012 0.713043 1.74675 0.715058 2.35394C0.715058 3.54195 1.33001 4.58948 2.26776 5.20556C1.71513 5.18418 1.17544 5.03498 0.692585 4.77009V4.81223C0.692585 6.47584 1.8898 7.85449 3.4854 8.17156C3.18581 8.248 2.87761 8.2871 2.56808 8.28795C2.34131 8.28795 2.12679 8.26588 1.91023 8.23578C2.35152 9.59235 3.63658 10.5777 5.16681 10.6098C3.96959 11.5309 2.47002 12.0727 0.841726 12.0727C0.549573 12.0727 0.279894 12.0627 0 12.0306C1.54453 13.0039 3.37712 13.5657 5.35068 13.5657C11.7576 13.5657 15.2634 8.35217 15.2634 3.82691C15.2634 3.67841 15.2634 3.52991 15.2532 3.38141C15.9315 2.89377 16.526 2.28973 17 1.61144Z" fill="#362A43"/>
</svg>
