<svg width="17" height="13" viewBox="0 0 17 13" fill="none" xmlns="http://www.w3.org/2000/svg">
<path fill-rule="evenodd" clip-rule="evenodd" d="M15.1318 9.11273C15.1318 9.11273 16.5062 10.9285 16.8462 11.7687C16.8529 11.7808 16.858 11.7942 16.8615 11.8085C17.0001 12.1189 17.0341 12.3622 16.9661 12.5418C16.8513 12.8386 16.4629 12.9875 16.3311 13H13.9018C13.7327 13 13.3808 12.9409 12.9524 12.5452C12.6251 12.2394 12.2996 11.7357 11.9842 11.2434C11.5133 10.5123 11.1062 9.87791 10.6939 9.87791C10.6419 9.87776 10.5902 9.88929 10.5409 9.91202C10.229 10.0439 9.83289 10.6385 9.83289 12.2223C9.83289 12.718 9.54049 13 9.33564 13H8.22299C7.84388 13 5.87018 12.8226 4.12003 10.3543C1.97548 7.33225 0.0493766 1.26998 0.0306766 1.21655C-0.0891736 0.824296 0.162427 0.610548 0.434427 0.610548H2.88753C3.21648 0.610548 3.32358 0.876596 3.39838 1.11536C3.48508 1.38936 3.80638 2.48539 4.33338 3.71672C5.18678 5.72005 5.71123 6.53525 6.13028 6.53525C6.20901 6.53555 6.28641 6.5081 6.35468 6.45566C6.90208 6.05317 6.80008 3.43817 6.77458 2.89925C6.77458 2.79465 6.77373 1.73159 6.49323 1.21768C6.29263 0.849309 5.95093 0.706052 5.74438 0.653752C5.79963 0.546878 5.91693 0.383155 6.06738 0.286514C6.44223 0.0363826 7.11968 0 7.79203 0H8.16518C8.89449 0.0136435 9.08319 0.0761762 9.34839 0.165996C9.88219 0.33654 9.89239 0.799283 9.84564 2.37511C9.83204 2.82535 9.81759 3.33243 9.81759 3.92933C9.81759 4.05667 9.81334 4.19879 9.81334 4.34319C9.79719 5.15157 9.77594 6.06227 10.2026 6.43633C10.258 6.48244 10.3219 6.50687 10.3871 6.50682C10.535 6.50682 10.9778 6.50682 12.1789 3.74969C12.7059 2.53201 13.1139 1.09603 13.1419 0.988018C13.1657 0.927759 13.2371 0.758352 13.3238 0.690135C13.3855 0.646242 13.4546 0.624317 13.5244 0.626465H16.4102C16.7247 0.626465 16.938 0.690135 16.9797 0.849309C17.0494 1.1074 16.9661 1.89531 15.6486 4.27838C15.4267 4.67518 15.2321 5.01854 15.0612 5.3187C13.867 7.41525 13.867 7.52099 15.1318 9.11273Z" fill="#362A43"/>
</svg>
