<svg width="68" height="68" viewBox="0 0 68 68" fill="none" xmlns="http://www.w3.org/2000/svg">
<g clip-path="url(#clip0_1_229)">
<path d="M57.4135 16.6826C57.7869 17.0562 58.2937 17.2662 58.8221 17.2662C59.3504 17.2662 59.8572 17.0564 60.2307 16.6826L66.1527 10.7607C67.344 9.57041 68 7.98741 68 6.30309C68 4.61863 67.344 3.03564 66.1515 1.84431C64.1767 -0.125432 61.201 -0.524666 58.8233 0.69163C56.445 -0.528385 53.4672 -0.12862 51.4913 1.8455C50.3001 3.03577 49.6442 4.61876 49.6442 6.30309C49.6442 7.98741 50.3001 9.57041 51.4908 10.76L57.4135 16.6826Z" fill="#B48FDB"/>
<path d="M49.9337 31.9406C47.8486 30.5036 45.324 29.6608 42.6059 29.6608C42.3256 29.6608 42.0478 29.6726 41.7713 29.6904C39.8698 36.9595 33.2594 42.3236 25.3943 42.3236C16.0444 42.3236 8.4648 34.744 8.4648 25.3941C8.4648 16.0443 16.0444 8.46467 25.3943 8.46467C30.1872 8.46467 34.5141 10.4571 37.594 13.658C39.2288 13.375 40.904 13.2272 42.6059 13.2272C44.4158 13.2272 46.2002 13.3917 47.9435 13.71C43.7148 5.56511 35.2054 0 25.3941 0C11.3694 0 0 11.3694 0 25.3941C0 39.4189 11.3694 50.7883 25.3941 50.7883C37.1552 50.7884 47.0464 42.7925 49.9337 31.9406Z" fill="#B48FDB"/>
<path d="M42.6061 17.2115C30.8454 17.2115 20.954 25.2069 18.0666 36.0584C20.1514 37.4958 22.6759 38.3392 25.3943 38.3392C25.6747 38.3392 25.9526 38.3276 26.2288 38.3097C28.1303 31.0406 34.7408 25.6763 42.6061 25.6763C51.9559 25.6763 59.5355 33.2559 59.5355 42.6058C59.5355 51.9556 51.9559 59.5352 42.6061 59.5352C37.8139 59.5352 33.4881 57.5431 30.4082 54.3429C28.7643 54.6266 27.0881 54.7727 25.3943 54.7727C23.5844 54.7727 21.7998 54.609 20.0566 54.2902C24.2852 62.4349 32.7948 67.9999 42.6061 67.9999C56.6308 67.9999 68.0002 56.6305 68.0002 42.6058C68.0002 28.581 56.6308 17.2115 42.6061 17.2115Z" fill="#B48FDB"/>
</g>
<defs>
<clipPath id="clip0_1_229">
<rect width="68" height="68" fill="white"/>
</clipPath>
</defs>
</svg>
